<svg width="1040" height="1040" viewBox="0 0 1040 1040" fill="none" xmlns="http://www.w3.org/2000/svg">
    <rect x="123.889" width="924.142" height="924.142" rx="108" transform="rotate(7.70415 123.889 0)" fill="#3B82F6"/>
    <rect x="81.376" y="77.4038" width="860.548" height="860.548" rx="108" fill="#172554"/>
    <path
        d="M698.91 689.211V531.784C698.91 523.5 705.625 516.784 713.91 516.784H745.715C759.539 516.784 766.003 499.671 755.633 490.531L526.786 288.836C521.082 283.808 512.517 283.844 506.855 288.92L281.888 490.615C271.641 499.802 278.14 516.784 291.901 516.784H315.103C323.388 516.784 330.103 523.5 330.103 531.784V689.211C330.103 692.546 331.215 695.787 333.263 698.42L357.472 729.545C360.313 733.199 364.683 735.336 369.312 735.336H659.701C664.33 735.336 668.7 733.199 671.542 729.545L695.75 698.42C697.798 695.787 698.91 692.546 698.91 689.211Z"
        stroke="#BFDBFE" stroke-width="30"/>
    <circle cx="519.06" cy="560.039" r="45.0316" fill="#EFF6FF" stroke="#BFDBFE"/>
    <rect x="491.741" y="564.592" width="54.638" height="86.5101" fill="#EFF6FF"/>
    <rect x="500" y="565" width="39" height="76" fill="#172554"/>
    <circle cx="519.5" cy="560.5" r="30.5" fill="#172554"/>
</svg>
